<svg xmlns="http://www.w3.org/2000/svg" viewBox="0 0 512 512" width="512" height="512">
  <defs>
    <radialGradient id="ig" cx="0.28" cy="0.92" r="1.15">
      <stop offset="0" stop-color="#6FE4FB"/>
      <stop offset="0.28" stop-color="#40C6FF"/>
      <stop offset="0.62" stop-color="#5598F9"/>
      <stop offset="0.86" stop-color="#6455BF"/>
      <stop offset="1" stop-color="#5C42A3"/>
    </radialGradient>
    <radialGradient id="gloss" cx="0.7" cy="0.08" r="0.7">
      <stop offset="0" stop-color="#FFFFFF" stop-opacity="0.22"/>
      <stop offset="1" stop-color="#FFFFFF" stop-opacity="0"/>
    </radialGradient>
    <clipPath id="cp"><path d="M512.00 256.00 L511.93 307.80 L511.70 328.04 L511.33 343.34 L510.81 356.09 L510.14 367.22 L509.32 377.18 L508.35 386.24 L507.23 394.59 L505.96 402.34 L504.53 409.59 L502.95 416.39 L501.21 422.80 L499.32 428.86 L497.27 434.59 L495.05 440.03 L492.68 445.20 L490.13 450.10 L487.42 454.77 L484.54 459.20 L481.49 463.42 L478.25 467.42 L474.83 471.23 L471.23 474.83 L467.42 478.25 L463.42 481.49 L459.20 484.54 L454.77 487.42 L450.10 490.13 L445.20 492.68 L440.03 495.05 L434.59 497.27 L428.86 499.32 L422.80 501.21 L416.39 502.95 L409.59 504.53 L402.34 505.96 L394.59 507.23 L386.24 508.35 L377.18 509.32 L367.22 510.14 L356.09 510.81 L343.34 511.33 L328.04 511.70 L307.80 511.93 L256.00 512.00 L204.20 511.93 L183.96 511.70 L168.66 511.33 L155.91 510.81 L144.78 510.14 L134.82 509.32 L125.76 508.35 L117.41 507.23 L109.66 505.96 L102.41 504.53 L95.61 502.95 L89.20 501.21 L83.14 499.32 L77.41 497.27 L71.97 495.05 L66.80 492.68 L61.90 490.13 L57.23 487.42 L52.80 484.54 L48.58 481.49 L44.58 478.25 L40.77 474.83 L37.17 471.23 L33.75 467.42 L30.51 463.42 L27.46 459.20 L24.58 454.77 L21.87 450.10 L19.32 445.20 L16.95 440.03 L14.73 434.59 L12.68 428.86 L10.79 422.80 L9.05 416.39 L7.47 409.59 L6.04 402.34 L4.77 394.59 L3.65 386.24 L2.68 377.18 L1.86 367.22 L1.19 356.09 L0.67 343.34 L0.30 328.04 L0.07 307.80 L0.00 256.00 L0.07 204.20 L0.30 183.96 L0.67 168.66 L1.19 155.91 L1.86 144.78 L2.68 134.82 L3.65 125.76 L4.77 117.41 L6.04 109.66 L7.47 102.41 L9.05 95.61 L10.79 89.20 L12.68 83.14 L14.73 77.41 L16.95 71.97 L19.32 66.80 L21.87 61.90 L24.58 57.23 L27.46 52.80 L30.51 48.58 L33.75 44.58 L37.17 40.77 L40.77 37.17 L44.58 33.75 L48.58 30.51 L52.80 27.46 L57.23 24.58 L61.90 21.87 L66.80 19.32 L71.97 16.95 L77.41 14.73 L83.14 12.68 L89.20 10.79 L95.61 9.05 L102.41 7.47 L109.66 6.04 L117.41 4.77 L125.76 3.65 L134.82 2.68 L144.78 1.86 L155.91 1.19 L168.66 0.67 L183.96 0.30 L204.20 0.07 L256.00 0.00 L307.80 0.07 L328.04 0.30 L343.34 0.67 L356.09 1.19 L367.22 1.86 L377.18 2.68 L386.24 3.65 L394.59 4.77 L402.34 6.04 L409.59 7.47 L416.39 9.05 L422.80 10.79 L428.86 12.68 L434.59 14.73 L440.03 16.95 L445.20 19.32 L450.10 21.87 L454.77 24.58 L459.20 27.46 L463.42 30.51 L467.42 33.75 L471.23 37.17 L474.83 40.77 L478.25 44.58 L481.49 48.58 L484.54 52.80 L487.42 57.23 L490.13 61.90 L492.68 66.80 L495.05 71.97 L497.27 77.41 L499.32 83.14 L501.21 89.20 L502.95 95.61 L504.53 102.41 L505.96 109.66 L507.23 117.41 L508.35 125.76 L509.32 134.82 L510.14 144.78 L510.81 155.91 L511.33 168.66 L511.70 183.96 L511.93 204.20 Z"/></clipPath>
  </defs>
  <g clip-path="url(#cp)">
    <rect width="512" height="512" fill="url(#ig)"/>
    <rect width="512" height="512" fill="url(#gloss)"/>
  </g>
  <g transform="translate(38.5,29.8) scale(4.35)"><rect x="14" y="29" width="72" height="46" rx="13" fill="none" stroke="#FFFFFF" stroke-width="8.6"/><path d="M28 41 L46 59 L74 31" fill="none" stroke="#FFFFFF" stroke-width="8.6" stroke-linecap="round" stroke-linejoin="round"/></g>
</svg>