<svg xmlns="http://www.w3.org/2000/svg" viewBox="0 0 595 150" width="595" height="150">
  <g transform="translate(8,16)"><svg xmlns="http://www.w3.org/2000/svg" viewBox="0 0 118 118" width="118" height="118">
  <defs>
    <radialGradient id="ig" cx="0.28" cy="0.92" r="1.15">
      <stop offset="0" stop-color="#6FE4FB"/>
      <stop offset="0.28" stop-color="#40C6FF"/>
      <stop offset="0.62" stop-color="#5598F9"/>
      <stop offset="0.86" stop-color="#6455BF"/>
      <stop offset="1" stop-color="#5C42A3"/>
    </radialGradient>
    <radialGradient id="gloss" cx="0.7" cy="0.08" r="0.7">
      <stop offset="0" stop-color="#FFFFFF" stop-opacity="0.22"/>
      <stop offset="1" stop-color="#FFFFFF" stop-opacity="0"/>
    </radialGradient>
    <clipPath id="cp"><path d="M118.00 59.00 L117.98 70.94 L117.93 75.60 L117.85 79.13 L117.73 82.07 L117.57 84.63 L117.38 86.93 L117.16 89.02 L116.90 90.94 L116.61 92.73 L116.28 94.40 L115.91 95.97 L115.51 97.44 L115.08 98.84 L114.60 100.16 L114.09 101.41 L113.55 102.60 L112.96 103.73 L112.34 104.81 L111.67 105.83 L110.97 106.80 L110.22 107.73 L109.43 108.60 L108.60 109.43 L107.73 110.22 L106.80 110.97 L105.83 111.67 L104.81 112.34 L103.73 112.96 L102.60 113.55 L101.41 114.09 L100.16 114.60 L98.84 115.08 L97.44 115.51 L95.97 115.91 L94.40 116.28 L92.73 116.61 L90.94 116.90 L89.02 117.16 L86.93 117.38 L84.63 117.57 L82.07 117.73 L79.13 117.85 L75.60 117.93 L70.94 117.98 L59.00 118.00 L47.06 117.98 L42.40 117.93 L38.87 117.85 L35.93 117.73 L33.37 117.57 L31.07 117.38 L28.98 117.16 L27.06 116.90 L25.27 116.61 L23.60 116.28 L22.03 115.91 L20.56 115.51 L19.16 115.08 L17.84 114.60 L16.59 114.09 L15.40 113.55 L14.27 112.96 L13.19 112.34 L12.17 111.67 L11.20 110.97 L10.27 110.22 L9.40 109.43 L8.57 108.60 L7.78 107.73 L7.03 106.80 L6.33 105.83 L5.66 104.81 L5.04 103.73 L4.45 102.60 L3.91 101.41 L3.40 100.16 L2.92 98.84 L2.49 97.44 L2.09 95.97 L1.72 94.40 L1.39 92.73 L1.10 90.94 L0.84 89.02 L0.62 86.93 L0.43 84.63 L0.27 82.07 L0.15 79.13 L0.07 75.60 L0.02 70.94 L0.00 59.00 L0.02 47.06 L0.07 42.40 L0.15 38.87 L0.27 35.93 L0.43 33.37 L0.62 31.07 L0.84 28.98 L1.10 27.06 L1.39 25.27 L1.72 23.60 L2.09 22.03 L2.49 20.56 L2.92 19.16 L3.40 17.84 L3.91 16.59 L4.45 15.40 L5.04 14.27 L5.66 13.19 L6.33 12.17 L7.03 11.20 L7.78 10.27 L8.57 9.40 L9.40 8.57 L10.27 7.78 L11.20 7.03 L12.17 6.33 L13.19 5.66 L14.27 5.04 L15.40 4.45 L16.59 3.91 L17.84 3.40 L19.16 2.92 L20.56 2.49 L22.03 2.09 L23.60 1.72 L25.27 1.39 L27.06 1.10 L28.98 0.84 L31.07 0.62 L33.37 0.43 L35.93 0.27 L38.87 0.15 L42.40 0.07 L47.06 0.02 L59.00 0.00 L70.94 0.02 L75.60 0.07 L79.13 0.15 L82.07 0.27 L84.63 0.43 L86.93 0.62 L89.02 0.84 L90.94 1.10 L92.73 1.39 L94.40 1.72 L95.97 2.09 L97.44 2.49 L98.84 2.92 L100.16 3.40 L101.41 3.91 L102.60 4.45 L103.73 5.04 L104.81 5.66 L105.83 6.33 L106.80 7.03 L107.73 7.78 L108.60 8.57 L109.43 9.40 L110.22 10.27 L110.97 11.20 L111.67 12.17 L112.34 13.19 L112.96 14.27 L113.55 15.40 L114.09 16.59 L114.60 17.84 L115.08 19.16 L115.51 20.56 L115.91 22.03 L116.28 23.60 L116.61 25.27 L116.90 27.06 L117.16 28.98 L117.38 31.07 L117.57 33.37 L117.73 35.93 L117.85 38.87 L117.93 42.40 L117.98 47.06 Z"/></clipPath>
  </defs>
  <g clip-path="url(#cp)">
    <rect width="118" height="118" fill="url(#ig)"/>
    <rect width="118" height="118" fill="url(#gloss)"/>
  </g>
  <g transform="translate(8.9,6.9) scale(1.0025390625)"><rect x="14" y="29" width="72" height="46" rx="13" fill="none" stroke="#FFFFFF" stroke-width="8.6"/><path d="M28 41 L46 59 L74 31" fill="none" stroke="#FFFFFF" stroke-width="8.6" stroke-linecap="round" stroke-linejoin="round"/></g>
</svg></g>
  <g transform="translate(150.0,100.0)" fill="#0B0D12"><path transform="translate(0.000,0) scale(0.10000,-0.10000)" d="M664 702 421 232V0H250V232L7 702H201L337 408L472 702Z"/>
      <path transform="translate(67.100,0) scale(0.10000,-0.10000)" d="M585 238H198Q202 186 231.5 158.5Q261 131 304 131Q368 131 393 185H575Q561 130 524.5 86.0Q488 42 433.0 17.0Q378 -8 310 -8Q228 -8 164.0 27.0Q100 62 64.0 127.0Q28 192 28 279Q28 366 63.5 431.0Q99 496 163.0 531.0Q227 566 310 566Q391 566 454.0 532.0Q517 498 552.5 435.0Q588 372 588 288Q588 264 585 238ZM413 333Q413 377 383.0 403.0Q353 429 308 429Q265 429 235.5 404.0Q206 379 199 333Z"/>
      <path transform="translate(128.700,0) scale(0.10000,-0.10000)" d="M32 183H201Q204 154 228.0 136.0Q252 118 287 118Q319 118 336.5 130.5Q354 143 354 163Q354 187 329.0 198.5Q304 210 248 224Q188 238 148.0 253.5Q108 269 79.0 302.5Q50 336 50 393Q50 441 76.5 480.5Q103 520 154.5 543.0Q206 566 277 566Q382 566 442.5 514.0Q503 462 512 376H354Q350 405 328.5 422.0Q307 439 272 439Q242 439 226.0 427.5Q210 416 210 396Q210 372 235.5 360.0Q261 348 315 336Q377 320 416.0 304.5Q455 289 484.5 254.5Q514 220 515 162Q515 113 487.5 74.5Q460 36 408.5 14.0Q357 -8 289 -8Q216 -8 159.0 17.0Q102 42 69.0 85.5Q36 129 32 183Z"/>
      <path transform="translate(184.500,0) scale(0.10000,-0.10000)" d="M693 351Q693 248 647.5 168.0Q602 88 518.5 44.0Q435 0 325 0H62V702H325Q436 702 519.0 658.0Q602 614 647.5 534.5Q693 455 693 351ZM519 351Q519 448 465.0 502.0Q411 556 314 556H233V148H314Q411 148 465.0 201.0Q519 254 519 351Z"/>
      <path transform="translate(257.200,0) scale(0.10000,-0.10000)" d="M408 564V383H361Q297 383 265.0 355.5Q233 328 233 259V0H62V558H233V465Q263 511 308.0 537.5Q353 564 408 564Z"/>
      <path transform="translate(300.000,0) scale(0.10000,-0.10000)" d="M28 279Q28 365 66.0 430.5Q104 496 170.0 531.0Q236 566 318 566Q400 566 466.0 531.0Q532 496 570.0 430.5Q608 365 608 279Q608 193 569.5 127.5Q531 62 464.5 27.0Q398 -8 316 -8Q234 -8 168.5 27.0Q103 62 65.5 127.0Q28 192 28 279ZM434 279Q434 346 400.5 382.0Q367 418 318 418Q268 418 235.0 382.5Q202 347 202 279Q202 212 234.5 176.0Q267 140 316 140Q365 140 399.5 176.0Q434 212 434 279Z"/>
      <path transform="translate(363.700,0) scale(0.10000,-0.10000)" d="M405 566Q474 566 530.0 531.0Q586 496 618.5 431.0Q651 366 651 280Q651 194 618.5 128.5Q586 63 530.0 27.5Q474 -8 405 -8Q347 -8 302.5 16.0Q258 40 233 78V-266H62V558H233V479Q258 518 302.0 542.0Q346 566 405 566ZM354 417Q303 417 267.5 380.0Q232 343 232 279Q232 215 267.5 178.0Q303 141 354 141Q405 141 441.0 178.5Q477 216 477 280Q477 344 441.5 380.5Q406 417 354 417Z"/></g>
</svg>